<svg width="56" height="56" viewBox="0 0 56 56" fill="none" xmlns="http://www.w3.org/2000/svg">
<path d="M12.511 34.7607C10.7673 36.5044 8.98749 37.3923 7.17151 37.4244C5.35553 37.4726 3.60785 36.6571 1.92847 34.9777C1.59099 34.6402 1.28967 34.2907 1.0245 33.9291C0.751301 33.5594 0.506224 33.1697 0.289271 32.7599L3.13377 30.494C3.2543 30.7109 3.49134 31.0364 3.84489 31.4703C4.19041 31.8961 4.43549 32.1814 4.58012 32.326C5.38365 33.1296 6.19924 33.4952 7.02687 33.4228C7.84648 33.3586 8.72634 32.8564 9.66647 31.9162L31.3377 10.245C33.2662 8.31654 35.2147 7.30811 37.1834 7.21972C39.152 7.13133 41.0202 7.97102 42.788 9.73879C43.1978 10.1486 43.5674 10.5825 43.8969 11.0405C44.2263 11.4985 44.5477 11.9806 44.8611 12.4869L42.0166 14.56C41.872 14.3189 41.5988 13.9734 41.197 13.5234C40.8033 13.0815 40.4497 12.7038 40.1363 12.3904C39.2364 11.4905 38.3043 11.0968 37.3401 11.2092C36.3758 11.3217 35.3232 11.9485 34.1822 13.0895L12.511 34.7607Z" fill="#58A4B0"/>
<path d="M22.4134 44.6573C20.6697 46.4009 18.8899 47.2888 17.0739 47.321C15.258 47.3692 13.5103 46.5536 11.8309 44.8742C11.4934 44.5367 11.1921 44.1872 10.9269 43.8256C10.6537 43.456 10.4087 43.0663 10.1917 42.6565L13.0362 40.3905C13.1567 40.6075 13.3938 40.9329 13.7473 41.3668C14.0928 41.7927 14.3379 42.0779 14.4826 42.2226C15.2861 43.0261 16.1017 43.3917 16.9293 43.3194C17.7489 43.2551 18.6288 42.7529 19.5689 41.8128L41.2401 20.1416C43.1686 18.2131 45.1172 17.2047 47.0858 17.1163C49.0545 17.0279 50.9227 17.8676 52.6904 19.6353C53.1002 20.0451 53.4699 20.479 53.7993 20.9371C54.1287 21.3951 54.4502 21.8772 54.7635 22.3834L51.919 24.4565C51.7744 24.2155 51.5012 23.8699 51.0994 23.42C50.7057 22.978 50.3522 22.6004 50.0388 22.287C49.1388 21.387 48.2067 20.9933 47.2425 21.1058C46.2783 21.2183 45.2256 21.845 44.0846 22.9861L22.4134 44.6573Z" fill="#58A4B0"/>
</svg>
