<svg width="100" height="100" viewBox="0 0 100 100" fill="none" xmlns="http://www.w3.org/2000/svg">
<circle cx="50" cy="50" r="50" fill="#0076ED"/>
<path d="M50 0C77.6142 0 100 22.3858 100 50C100 77.6142 77.6142 100 50 100C22.3858 100 0 77.6142 0 50C0 22.3858 22.3858 0 50 0ZM76.0342 36.4131C73.4093 36.5309 70.8115 37.876 68.2402 40.4473L39.3447 69.3418C38.0913 70.5952 36.9179 71.2649 35.8252 71.3506C34.722 71.4469 33.6346 70.9596 32.5635 69.8887C32.3707 69.6959 32.0436 69.3148 31.583 68.7471C31.1118 68.1688 30.7955 67.7346 30.6348 67.4453L26.8418 70.4668C27.131 71.013 27.4581 71.5327 27.8223 72.0254C28.1757 72.5074 28.5775 72.974 29.0273 73.4238C31.2665 75.6629 33.5973 76.7508 36.0186 76.6865C38.4397 76.6436 40.813 75.4594 43.1377 73.1348L72.0322 44.2393C73.5535 42.718 74.9575 41.8824 76.2432 41.7324C77.5288 41.5825 78.7718 42.1077 79.9717 43.3076C80.3894 43.7254 80.8609 44.2293 81.3857 44.8184C81.9212 45.4181 82.2857 45.8788 82.4785 46.2002L86.2715 43.4365C85.8537 42.7617 85.4245 42.1184 84.9854 41.5078C84.5462 40.8973 84.0531 40.3188 83.5068 39.7725C81.1498 37.4155 78.659 36.2952 76.0342 36.4131ZM63.1924 23.0088C60.5675 23.1266 57.9688 24.4717 55.3975 27.043L26.5029 55.9375C25.2495 57.1909 24.0761 57.8606 22.9834 57.9463C21.88 58.0427 20.792 57.5556 19.7207 56.4844C19.5279 56.2915 19.2017 55.9104 18.7412 55.3428C18.2703 54.7648 17.9538 54.3313 17.793 54.042L14 57.0625C14.2892 57.6088 14.6163 58.1293 14.9805 58.6221C15.3339 59.1039 15.7358 59.5698 16.1855 60.0195C18.4245 62.2584 20.7547 63.3464 23.1758 63.2822C25.597 63.2394 27.9711 62.0552 30.2959 59.7305L59.1904 30.8359C60.7118 29.3146 62.1157 28.4781 63.4014 28.3281C64.6868 28.1783 65.9292 28.7037 67.1289 29.9033C67.5467 30.3211 68.0191 30.8249 68.5439 31.4141C69.0794 32.0138 69.4439 32.4746 69.6367 32.7959L73.4287 30.0322C73.0109 29.3574 72.5827 28.7141 72.1436 28.1035C71.7044 27.493 71.2113 26.9145 70.665 26.3682C68.3081 24.0112 65.8171 22.891 63.1924 23.0088Z" fill="#F5F8FD"/>
</svg>
