<svg width="100" height="100" viewBox="0 0 100 100" fill="none" xmlns="http://www.w3.org/2000/svg">
<circle cx="50" cy="50" r="50" fill="#0076ED"/>
<path d="M50 0C77.6142 0 100 22.3858 100 50C100 77.6142 77.6142 100 50 100C22.3858 100 0 77.6142 0 50C0 22.3858 22.3858 0 50 0ZM75.3057 28.8486C71.9489 26.4579 68.7061 25.5526 65.5771 26.1328C62.4605 26.7219 59.6583 28.7624 57.1709 32.2549L49.8076 42.5918L43.5215 33.459C41.1504 30.0144 38.4654 27.9715 35.4678 27.3311C32.4702 26.6906 29.3362 27.4963 26.0664 29.7471C25.3427 30.2453 24.6904 30.7405 24.1094 31.2324C23.5283 31.7243 22.977 32.2596 22.4561 32.8389L27.1074 38.7148C27.3804 38.4166 27.7014 38.094 28.0703 37.748C28.4392 37.4022 28.8982 37.0401 29.4473 36.6621C30.6204 35.8546 31.7053 35.5864 32.7012 35.8574C33.7009 36.1073 34.665 36.9061 35.5928 38.2539L44.0977 50.6094L35.9434 62.0596C34.9942 63.3923 34.0182 64.1762 33.0146 64.4102C32.0146 64.6652 30.9345 64.3789 29.7744 63.5527C29.2315 63.1661 28.7783 62.797 28.415 62.4453C28.0518 62.0936 27.7359 61.7664 27.4678 61.4639L22.7227 67.2646C23.2342 67.8521 23.7766 68.3964 24.3496 68.8975C24.9227 69.3986 25.5674 69.9043 26.2832 70.4141C29.5166 72.7168 32.6371 73.5719 35.6445 72.9795C38.6521 72.387 41.369 70.3877 43.7949 66.9814L49.6787 58.7178L56.3398 68.3945C58.7711 71.9265 61.5405 74.0125 64.6475 74.6514C67.7667 75.2814 71.0235 74.4274 74.418 72.0908C75.0794 71.6355 75.7192 71.1221 76.3369 70.5498C76.9757 69.9814 77.6197 69.3269 78.2686 68.5859L73.502 63.0645C73.1791 63.397 72.7314 63.7885 72.1582 64.2383C71.585 64.6881 70.9984 65.1189 70.3994 65.5312C69.2886 66.2958 68.2586 66.5636 67.3096 66.334C66.3732 66.0957 65.467 65.3401 64.5908 64.0674L55.3896 50.7002L65.3506 36.7139C66.2471 35.455 67.1662 34.7144 68.1064 34.4912C69.059 34.2768 70.0843 34.5605 71.1826 35.3428C71.775 35.7646 72.354 36.2052 72.9199 36.6641C73.4857 37.1228 73.9276 37.5208 74.2451 37.8584L79.0996 32.415C78.4627 31.6638 77.8288 30.9985 77.1992 30.4199C76.5909 29.8379 75.9596 29.3144 75.3057 28.8486Z" fill="#F2F7FF"/>
</svg>
